<svg width="81" height="18" viewBox="0 0 81 18" fill="none" xmlns="http://www.w3.org/2000/svg">
<g clip-path="url(#clip0_13305_2)">
<path d="M8.46689 16.4883C3.92269 16.4883 0.5 12.8917 0.5 8.45141C0.5 3.99635 3.74792 0.370117 8.46689 0.370117C10.972 0.370117 12.7051 1.13976 14.0597 2.90108L11.875 4.72159C10.9574 3.74473 9.85049 3.2563 8.46689 3.2563C5.39373 3.2563 3.70422 5.60965 3.70422 8.45141C3.70422 11.2932 5.55393 13.6021 8.46689 13.6021C9.83592 13.6021 11.0011 13.1137 11.9187 12.1369L14.0743 14.0314C12.778 15.7187 11.0011 16.4883 8.46689 16.4883Z" fill="#A6ADBB"/>
<path d="M23.4831 4.66245H26.4251V16.2072H23.4831V14.5199C22.8713 15.7188 21.8518 16.518 19.9002 16.518C16.7833 16.518 14.2927 13.8095 14.2927 10.4792C14.2927 7.149 16.7833 4.44043 19.9002 4.44043C21.8373 4.44043 22.8713 5.23969 23.4831 6.43856V4.66245ZM23.5704 10.4792C23.5704 8.67353 22.3324 7.17861 20.3808 7.17861C18.5019 7.17861 17.2785 8.68826 17.2785 10.4792C17.2785 12.2257 18.5019 13.7798 20.3808 13.7798C22.3179 13.7798 23.5704 12.2701 23.5704 10.4792Z" fill="#A6ADBB"/>
<path d="M28.5078 0H31.4498V16.1922H28.5078V0Z" fill="#A6ADBB"/>
<path d="M32.7606 14.6674C32.7606 13.7202 33.518 12.9209 34.5521 12.9209C35.5862 12.9209 36.3144 13.7202 36.3144 14.6674C36.3144 15.6443 35.5716 16.4435 34.5521 16.4435C33.5326 16.4435 32.7606 15.6443 32.7606 14.6674Z" fill="#A6ADBB"/>
<path d="M47.573 14.3423C46.4806 15.6743 44.8202 16.518 42.854 16.518C39.3439 16.518 36.766 13.8095 36.766 10.4792C36.766 7.149 39.3439 4.44043 42.854 4.44043C44.7474 4.44043 46.3932 5.23968 47.4856 6.49776L45.2135 8.40708C44.6454 7.69664 43.9026 7.1638 42.854 7.1638C40.9752 7.1638 39.7517 8.67353 39.7517 10.4644C39.7517 12.2553 40.9752 13.765 42.854 13.765C43.9901 13.765 44.7765 13.173 45.3591 12.3737L47.573 14.3423Z" fill="#A6ADBB"/>
<path d="M47.8206 10.4792C47.8206 7.149 50.3985 4.44043 53.9086 4.44043C57.4187 4.44043 59.9966 7.149 59.9966 10.4792C59.9966 13.8095 57.4187 16.518 53.9086 16.518C50.3985 16.5032 47.8206 13.8095 47.8206 10.4792ZM57.0108 10.4792C57.0108 8.67353 55.7874 7.17861 53.9086 7.17861C52.0297 7.1638 50.8063 8.67353 50.8063 10.4792C50.8063 12.2701 52.0297 13.7798 53.9086 13.7798C55.7874 13.7798 57.0108 12.2701 57.0108 10.4792Z" fill="#A6ADBB"/>
<path d="M79.8917 9.14676V16.192H76.9499V9.87199C76.9499 7.87388 76.0178 7.01543 74.6196 7.01543C73.3087 7.01543 72.3766 7.66667 72.3766 9.87199V16.192H69.4345V9.87199C69.4345 7.87388 68.4878 7.01543 67.1042 7.01543C65.7934 7.01543 64.6427 7.66667 64.6427 9.87199V16.192H61.7007V4.64728H64.6427V6.24578C65.2544 5.0025 66.3614 4.38086 68.0654 4.38086C69.6821 4.38086 71.0366 5.18011 71.7794 6.52699C72.5222 5.15051 73.6146 4.38086 75.5953 4.38086C78.0131 4.39566 79.8917 6.23097 79.8917 9.14676Z" fill="#A6ADBB"/>
</g>
<defs>
<clipPath id="clip0_13305_2">
<rect width="80" height="17.4257" fill="white" transform="translate(0.5)"/>
</clipPath>
</defs>
</svg>
