<svg width="25" height="24" viewBox="0 0 25 24" fill="none" xmlns="http://www.w3.org/2000/svg">
<path d="M23 11.9894C23.0007 12.2567 22.9299 12.5192 22.7951 12.75C22.6603 12.9808 22.4663 13.1713 22.2331 13.3019L6.49061 22.3028C6.26471 22.4309 6.00966 22.4987 5.74999 22.4997C5.51073 22.4984 5.27525 22.4399 5.0632 22.3291C4.85116 22.2183 4.66871 22.0583 4.53107 21.8626C4.39344 21.6669 4.30462 21.4411 4.27203 21.2041C4.23944 20.967 4.26403 20.7256 4.34374 20.5L6.87499 13.0047C6.89973 12.9314 6.94652 12.8676 7.00895 12.822C7.07138 12.7763 7.14641 12.7511 7.22374 12.7497H14C14.1028 12.75 14.2046 12.729 14.299 12.6883C14.3934 12.6475 14.4784 12.5878 14.5487 12.5128C14.619 12.4378 14.6732 12.3491 14.7078 12.2523C14.7424 12.1555 14.7568 12.0526 14.75 11.95C14.733 11.7572 14.6437 11.5779 14.5002 11.448C14.3566 11.3181 14.1692 11.2473 13.9756 11.2497H7.22561C7.14716 11.2497 7.07067 11.2251 7.00693 11.1794C6.94319 11.1336 6.89541 11.0691 6.8703 10.9947L4.33905 3.50035C4.2383 3.21309 4.22734 2.90198 4.30761 2.60835C4.38789 2.31471 4.55561 2.05245 4.78848 1.8564C5.02136 1.66035 5.30837 1.5398 5.6114 1.51075C5.91442 1.48171 6.21911 1.54555 6.48499 1.69379L22.235 10.6835C22.4668 10.8138 22.6598 11.0034 22.7943 11.2329C22.9287 11.4624 22.9997 11.7235 23 11.9894Z" fill="#A6ADBB"/>
</svg>
