<svg width="120" height="60" viewBox="0 0 120 60" fill="none" xmlns="http://www.w3.org/2000/svg">
<path d="M92.0987 11H92.7852L93.19 14.4108C93.7125 18.8151 97.185 22.2875 101.589 22.8101L105 23.2148V23.9013L101.589 24.3061C97.185 24.8286 93.7125 28.3011 93.19 32.7053L92.7852 36.1161H92.0987L91.694 32.7053C91.1714 28.3011 87.699 24.8286 83.2947 24.3061L79.8839 23.9013V23.2148L83.2947 22.8101C87.699 22.2875 91.1714 18.8151 91.694 14.4108L92.0987 11Z" fill="#A6ADBB"/>
<path d="M90.3341 47.8031V47.8848C89.5181 48.9048 88.0085 49.6391 86.254 49.6391C83.7244 49.6391 82.3371 48.2111 82.0922 46.0488C82.0922 45.8855 82.0107 44.743 82.0107 44.3759C81.5211 47.1911 78.7059 49.5984 75.2785 49.5984C72.0552 49.5984 69.4032 47.9664 69.4032 44.539C69.4032 40.0918 73.9729 39.1125 78.869 38.2149L81.9699 37.6438V34.7876C81.9699 32.0948 80.7459 29.7283 77.7266 29.7283C75.0337 29.7283 73.9729 31.1971 73.9729 32.9924C73.9729 34.3796 74.6665 35.2773 75.8497 35.2773C76.0537 35.2773 76.2577 35.2364 76.4617 35.1549C76.0946 36.4605 74.9521 37.1541 73.5241 37.1541C71.688 37.1541 70.26 35.9709 70.26 34.0124C70.26 31.238 73.3201 28.9531 77.8082 28.9531C83.5204 28.9531 86.7844 30.9931 86.7844 35.93C86.7844 39.1941 86.7029 41.8463 86.7029 44.4575C86.7029 46.8239 87.3964 48.0888 89.1916 48.0888C89.5996 48.0888 90.0077 47.9664 90.3341 47.8031ZM81.9699 38.4189L79.5626 38.8678C75.9314 39.6021 74.2585 41.071 74.2585 43.927C74.2585 46.4159 75.5641 47.4768 77.3594 47.4768C79.7259 47.4768 81.8475 45.4366 81.8882 42.0503L81.9699 38.4189Z" fill="#A6ADBB"/>
<path d="M67.8096 42.5811L68.1768 42.6219C67.8096 46.5387 66.1776 49.7212 62.1383 49.7212C58.7518 49.7212 56.5486 47.6812 56.5486 43.4787V30.4223H53.8965V30.096C57.5686 29.3615 60.0575 26.3831 60.9142 22.3438H61.2815V29.3615H67.5648L67.3608 30.4223H61.2815V43.4379C61.2815 45.9267 62.2198 47.2324 63.9743 47.2324C65.9328 47.2324 67.2792 45.5595 67.8096 42.5811Z" fill="#A6ADBB"/>
<path d="M51.3078 18.752V44.8646C51.3078 47.5574 51.5934 48.3326 53.511 49.2303V49.3119H44.3717V49.2303C46.2893 48.3326 46.5749 47.5574 46.5749 44.8646V23.2401C46.5749 20.7512 46.0037 19.6904 44.086 18.8336V18.752H51.3078Z" fill="#A6ADBB"/>
<path d="M27.4851 27.0351L22.3034 39.0306H32.9524L27.4851 27.0351ZM21.6506 49.2308V49.3125H15V49.2308C16.5912 48.3741 17.6521 46.6196 18.8353 43.9676L29.362 20.3438H29.5251L40.827 44.7427C42.051 47.354 42.5815 48.3741 44.1319 49.2308V49.3125H34.2989V49.2308C35.4821 48.7005 36.1349 48.0068 36.1349 47.0276C36.1349 46.334 35.8901 45.5587 35.4821 44.6203L33.442 40.1322H21.8138L20.2633 43.7635C19.8961 44.5796 19.6105 45.4772 19.6105 46.4156C19.6105 47.6396 20.4265 48.7005 21.6506 49.2308Z" fill="#A6ADBB"/>
</svg>
