<svg width="120" height="60" viewBox="0 0 120 60" fill="none" xmlns="http://www.w3.org/2000/svg">
<g clip-path="url(#clip0_13464_119)">
<mask id="mask0_13464_119" style="mask-type:luminance" maskUnits="userSpaceOnUse" x="0" y="20" width="120" height="19">
<path d="M120 20.2637H0V38.3201H120V20.2637Z" fill="white"/>
</mask>
<g mask="url(#mask0_13464_119)">
<path d="M12.0408 33.7661H4.96438L3.61442 37.37H0L6.79336 20.5518H10.2772L17.0923 37.37H13.3908L12.0408 33.7661ZM10.9303 30.8109L8.5135 24.3719L6.09659 30.8109H10.9303Z" fill="#A6ADBB"/>
<path d="M32.6523 20.5518V37.37H29.7564L22.1574 27.1589V37.37H18.6736V20.5518H21.5913L29.1684 30.7629V20.5518H32.6523Z" fill="#A6ADBB"/>
<path d="M49.718 20.5518H53.2454V37.37H49.718V20.5518Z" fill="#A6ADBB"/>
<path d="M56.8624 20.5518H63.7862C65.4414 20.5518 66.9003 20.9041 68.1629 21.6089C69.4404 22.2977 70.4276 23.2747 71.1239 24.5401C71.8356 25.8055 72.1909 27.279 72.1909 28.9609C72.1909 30.6427 71.8356 32.1163 71.1239 33.3817C70.4276 34.647 69.4404 35.632 68.1629 36.3369C66.9003 37.0257 65.4414 37.37 63.7862 37.37H56.8624V20.5518ZM63.6124 34.1745C65.1363 34.1745 66.3488 33.7101 67.2485 32.781C68.1629 31.836 68.6199 30.5626 68.6199 28.9609C68.6199 27.3591 68.1629 26.0938 67.2485 25.1648C66.3488 24.2197 65.1363 23.7472 63.6124 23.7472H60.3895V34.1745H63.6124Z" fill="#A6ADBB"/>
<path d="M82.2325 37.6585C80.6501 37.6585 79.2207 37.2822 77.9433 36.5293C76.68 35.7764 75.6857 34.7434 74.9604 33.4299C74.2487 32.1005 73.8934 30.6109 73.8934 28.9611C73.8934 27.3113 74.2487 25.8297 74.9604 24.5163C75.6857 23.1868 76.68 22.1457 77.9433 21.3929C79.2207 20.6401 80.6501 20.2637 82.2325 20.2637C83.815 20.2637 85.2372 20.6401 86.4999 21.3929C87.7632 22.1457 88.7574 23.1868 89.4834 24.5163C90.2087 25.8297 90.5716 27.3113 90.5716 28.9611C90.5716 30.6109 90.2087 32.1005 89.4834 33.4299C88.7574 34.7434 87.7632 35.7764 86.4999 36.5293C85.2372 37.2822 83.815 37.6585 82.2325 37.6585ZM82.2325 34.343C83.1322 34.343 83.9456 34.1186 84.6709 33.6702C85.3969 33.2057 85.9632 32.565 86.3693 31.7482C86.7907 30.9312 87.0012 30.0022 87.0012 28.9611C87.0012 27.92 86.7907 26.991 86.3693 26.1741C85.9632 25.3572 85.3969 24.7245 84.6709 24.276C83.9456 23.8115 83.1322 23.5793 82.2325 23.5793C81.3328 23.5793 80.5194 23.8115 79.7941 24.276C79.0682 24.7245 78.4948 25.3572 78.0739 26.1741C77.6672 26.991 77.4638 27.92 77.4638 28.9611C77.4638 30.0022 77.6672 30.9312 78.0739 31.7482C78.4948 32.565 79.0682 33.2057 79.7941 33.6702C80.5194 34.1186 81.3328 34.343 82.2325 34.343Z" fill="#A6ADBB"/>
<path d="M119.255 34.2467V37.37H107.454V20.5518H118.973V23.6751H110.96V27.3271H118.036V30.3544H110.96V34.2467H119.255Z" fill="#A6ADBB"/>
<path d="M47.8022 20.5781L34.6098 20.5781V23.9617H39.3876V37.8106H43.0245V23.9617H47.8022V20.5781Z" fill="#A6ADBB"/>
<path fill-rule="evenodd" clip-rule="evenodd" d="M100.728 26.924V20.626H97.119V26.924H91.868V30.9991H97.119V37.2969H100.728V30.9991H105.977V26.924H100.728Z" fill="#A6ADBB"/>
</g>
</g>
<defs>
<clipPath id="clip0_13464_119">
<rect width="120" height="18.9163" fill="white" transform="translate(0 20.042)"/>
</clipPath>
</defs>
</svg>
