<svg width="120" height="60" viewBox="0 0 120 60" fill="none" xmlns="http://www.w3.org/2000/svg">
<g clip-path="url(#clip0_13464_115)">
<mask id="mask0_13464_115" style="mask-type:luminance" maskUnits="userSpaceOnUse" x="0" y="18" width="120" height="24">
<path d="M120 18.7158H0V41.7443H120V18.7158Z" fill="white"/>
</mask>
<g mask="url(#mask0_13464_115)">
<path d="M12.0353 39.1023C10.9235 40.0883 9.82942 40.5907 8.75292 40.5907H5.6294V30.9723H8.18825C10.0942 30.9723 11.3294 31.9211 11.8942 33.8187H12.0176V28.0514H11.8942C11.3471 29.67 10.1118 30.4886 8.18825 30.4886H5.6294V21.6702H8.13525C9.40584 21.6702 10.5 22.1167 11.3823 22.9911C12.2647 23.8655 13.0235 25.1492 13.6942 26.8422L13.8 26.7864L13.5706 21.1865H0V21.3168C0.829416 21.6144 1.25294 22.9353 1.25294 25.2794V36.9815C1.25294 39.3628 0.829416 40.6837 0 40.9441V41.0744H14.3118L14.8765 35.4187L14.7706 35.3629C14.0647 36.8512 13.1471 38.0977 12.0353 39.1023Z" fill="#A6ADBB"/>
<path d="M29.5403 26.5068H25.1637V26.6557C25.5872 26.7673 25.9225 26.972 26.2049 27.2882C26.4872 27.6045 26.6814 28.0138 26.7872 28.5347C26.8931 29.0557 26.8225 29.6696 26.5755 30.3765L24.4225 36.6275L21.8284 29.5579C21.2108 27.8835 21.4225 26.9162 22.499 26.6557V26.5254H15.3695V26.6557C15.9695 26.7487 16.5166 27.3998 17.0108 28.6278L22.0402 41.0925H23.4343L23.5931 40.5716L27.2108 30.0045C27.5284 29.13 27.899 28.3859 28.3403 27.7533C28.7815 27.1208 29.1874 26.7487 29.5403 26.6557V26.5068Z" fill="#A6ADBB"/>
<path d="M38.2773 38.2084C36.9008 38.2084 35.7362 37.7247 34.8183 36.7387C33.9008 35.7527 33.3891 34.3946 33.3008 32.6458H41.3655C41.4185 32.5342 41.4362 32.1807 41.4362 31.5854C41.4362 30.0599 40.9421 28.7947 39.9537 27.7901C38.9654 26.7855 37.6595 26.2832 36.0183 26.2832C34.1124 26.2832 32.5244 26.9716 31.2537 28.3669C29.9832 29.7621 29.3478 31.604 29.3478 33.8737C29.3478 36.069 29.9832 37.8736 31.2713 39.2503C32.5595 40.627 34.1478 41.334 36.0537 41.334C37.6066 41.334 38.8595 40.906 39.7949 40.0503C40.7302 39.1945 41.3302 38.2084 41.5774 37.0922L41.5067 37.0364C40.7302 37.8178 39.6537 38.2084 38.2773 38.2084ZM33.2832 32.0505C33.2832 30.4877 33.5478 29.204 34.0949 28.2181C34.6244 27.232 35.2773 26.7483 36.0362 26.7483C36.7244 26.7483 37.2537 27.0832 37.6066 27.7529C37.9595 28.4227 38.1362 29.3715 38.1362 30.5993C38.1362 31.1947 38.1008 31.697 38.0124 32.1063H33.3008V32.0505H33.2832Z" fill="#A6ADBB"/>
<path d="M49.2011 39.92C48.9715 39.362 48.8656 38.469 48.8656 37.2597V31.5668C48.8656 29.1483 48.9366 27.3995 49.0952 26.3391L49.0245 26.2646C47.5777 26.7483 45.7777 27.0275 43.6245 27.0832L43.5715 27.1948C43.9953 27.418 44.2952 27.846 44.5071 28.4972C44.7185 29.1483 44.8245 30.1715 44.8245 31.5668V37.2597C44.8245 38.5806 44.7366 39.4736 44.56 39.9759C44.3834 40.4782 44.0483 40.8131 43.5539 40.9805V41.0922H50.4011V40.9805C49.8188 40.8131 49.413 40.4596 49.2011 39.92Z" fill="#A6ADBB"/>
<path d="M113.258 39.92C113.03 39.3619 112.924 38.469 112.924 37.2597V31.5668C112.924 29.1483 112.995 27.3995 113.153 26.3391L113.082 26.2646C111.636 26.7483 109.835 27.0274 107.683 27.0832L107.63 27.1948C108.053 27.418 108.353 27.846 108.565 28.4972C108.777 29.1483 108.883 30.1715 108.883 31.5668V37.2597C108.883 38.5806 108.795 39.4736 108.618 39.9759C108.441 40.4782 108.106 40.8131 107.612 40.9805V41.0922H114.458V40.9805C113.876 40.8131 113.471 40.4596 113.258 39.92Z" fill="#A6ADBB"/>
<path d="M72.4764 39.921C72.1055 39.3628 71.6296 38.2651 70.9939 36.628L65.2588 21.1865H62.947L56.8941 36.7024C56.453 37.8745 55.9413 38.8233 55.4115 39.5861C54.8645 40.3488 54.3528 40.7953 53.8764 40.9441V41.0744H59.4703V40.9441C58.5881 40.7767 57.9528 40.293 57.5823 39.493C57.1939 38.693 57.2296 37.6512 57.653 36.3861L58.4645 34.3024H65.4703L66.3704 36.8512C67.1823 39.1768 66.9351 40.5534 65.6115 40.9441V41.0744H73.6411V40.9441C73.2353 40.8139 72.8296 40.4604 72.4764 39.921ZM58.6764 33.7257L62.0999 24.9259L65.2588 33.7257H58.6764Z" fill="#A6ADBB"/>
<path d="M79.9051 24.6835C79.9051 22.7858 80.046 21.4836 80.3463 20.7766C80.646 20.0697 81.0872 19.7162 81.6693 19.7162C82.958 19.7162 83.9106 21.2789 84.4934 24.4231L84.5993 24.4416L85.8514 20.665C85.4281 20.2371 84.8281 19.9022 84.0693 19.6232C83.2934 19.3441 82.4989 19.2139 81.6693 19.2139C79.8343 19.2139 78.4047 19.6604 77.3814 20.5348C76.358 21.4278 75.846 22.8045 75.846 24.6835V26.5067H74.9106V26.9718H75.846V37.2413C75.846 38.5622 75.758 39.4552 75.5814 39.9575C75.4047 40.4599 75.0872 40.7947 74.593 40.9621V41.0737H81.3876V40.9621C80.8576 40.8133 80.4693 40.4599 80.2405 39.9017C80.0109 39.3435 79.9051 38.4505 79.9051 37.26V26.9718H83.1168V26.5067H79.9051V24.6835Z" fill="#A6ADBB"/>
<path d="M91.1993 39.1943C89.681 39.1943 88.923 38.0966 88.923 35.8828V26.9714H92.558V26.5063H88.923V23.4552L88.7993 23.3994C88.2872 23.9203 87.5463 24.5342 86.5759 25.2226C85.6047 25.9109 84.7759 26.3947 84.0872 26.6923V26.99H85.0755V36.3107C85.0755 37.9478 85.446 39.1943 86.1697 40.0501C86.9106 40.9058 87.9876 41.3338 89.4164 41.3338C90.4226 41.3338 91.2514 41.0361 91.923 40.4594C92.5931 39.8826 93.0164 39.1757 93.158 38.3758L93.0872 38.3199C92.6989 38.8966 92.0639 39.1943 91.1993 39.1943Z" fill="#A6ADBB"/>
<path d="M102.335 38.2084C100.958 38.2084 99.793 37.7247 98.8763 36.7387C97.958 35.7527 97.4467 34.3946 97.358 32.6458H105.423C105.476 32.5342 105.493 32.1807 105.493 31.5854C105.493 30.0599 104.999 28.7947 104.011 27.7901C103.023 26.7855 101.717 26.2832 100.076 26.2832C98.1697 26.2832 96.5814 26.9716 95.3106 28.3669C94.0405 29.7621 93.4047 31.604 93.4047 33.8737C93.4047 36.069 94.0405 37.8736 95.3292 39.2503C96.6171 40.627 98.2047 41.334 100.111 41.334C101.664 41.334 102.917 40.906 103.852 40.0503C104.788 39.1945 105.388 38.2084 105.634 37.0922L105.563 37.0364C104.77 37.8178 103.693 38.2084 102.335 38.2084ZM97.323 32.0505C97.323 30.4877 97.5876 29.204 98.1347 28.2181C98.6639 27.232 99.3168 26.7483 100.076 26.7483C100.763 26.7483 101.293 27.0832 101.647 27.7529C101.999 28.4227 102.176 29.3715 102.176 30.5993C102.176 31.1947 102.14 31.697 102.052 32.1063H97.3401V32.0505H97.323Z" fill="#A6ADBB"/>
<path d="M55.9413 28.9992L53.8941 27.8085L52.7647 25.6504L51.653 27.8085L49.5885 28.9992L51.653 30.1898L52.7647 32.3479L53.8941 30.1898L55.9413 28.9992Z" fill="#A6ADBB"/>
<path d="M117.954 27.8085L116.825 25.6504L115.713 27.8085L113.648 28.9992L115.713 30.1897L116.825 32.3479L117.954 30.1897L120.001 28.9992L117.954 27.8085Z" fill="#A6ADBB"/>
</g>
</g>
<defs>
<clipPath id="clip0_13464_115">
<rect width="120" height="23.8509" fill="white" transform="translate(0 18)"/>
</clipPath>
</defs>
</svg>
