<svg width="120" height="60" viewBox="0 0 120 60" fill="none" xmlns="http://www.w3.org/2000/svg">
<path d="M5.36822 26.5232C7.04579 26.5232 7.86061 27.2136 7.86061 28.3801C7.86061 29.5229 7.16562 30.2133 5.39219 30.2133C3.61876 30.2133 2.9717 29.4991 2.9717 28.3801C2.9717 27.2612 3.64272 26.5232 5.36822 26.5232ZM5.55995 37.2601C2.68411 37.2601 2.01308 36.9506 2.01308 36.0936C2.01308 35.546 2.54032 34.9985 3.71462 34.9985H8.02837C8.96302 34.9985 9.27457 35.427 9.27457 35.9269C9.27457 36.8316 8.6275 37.2601 5.55995 37.2601ZM5.60788 39.1647C9.8737 39.1885 11.3356 38.0219 11.3356 35.9269C11.3356 34.189 10.329 33.1415 7.93251 33.1415C6.68632 33.1415 5.2484 33.2129 3.90634 33.2129C3.23531 33.2129 2.92376 33.0463 2.92376 32.6178C2.92376 32.4273 3.04359 32.2845 3.18738 32.0464L3.42704 31.6655C4.0022 31.8321 4.64927 31.9036 5.36822 31.9036C8.43578 31.9036 10.0894 30.8799 10.0894 28.9039C10.0894 27.4041 9.03491 26.8089 7.64493 26.547V26.5232C8.43578 26.5708 8.98698 26.5708 9.53818 26.5708H11.0001V24.4044H5.48805C2.44446 24.4044 0.647063 25.7852 0.647063 28.2373C0.647063 29.9038 1.55774 31.0941 3.23531 31.6179L2.37256 31.9988C1.46188 32.3083 0.958611 32.9035 0.958611 33.4748C0.958611 34.3081 1.58171 34.8318 2.68411 34.9747C0.934646 35.1889 0 35.9269 0 36.8792C0 38.2838 1.22223 39.1885 5.60788 39.1647Z" fill="#A6ADBB"/>
<path d="M14.7093 35.5936V29.9276C14.7093 27.9754 15.5001 27.285 17.5132 27.285H18.6156V24.4044H17.9685C16.267 24.4044 15.2605 25.1662 14.7572 28.0707H14.7093V24.4044H12.121V35.5936H14.7093Z" fill="#A6ADBB"/>
<path d="M24.6006 35.9031C28.1714 35.9031 30.3522 33.6415 30.3522 29.9752C30.3522 26.2851 28.0516 24.1187 24.6006 24.1187C21.1256 24.1187 18.8249 26.2851 18.8249 29.9752C18.8249 33.6415 20.9818 35.9031 24.6006 35.9031ZM24.6006 26.4518C26.5897 26.4518 27.7879 27.8088 27.7879 29.9514C27.7879 32.1178 26.6376 33.5462 24.5766 33.5462C22.5395 33.5462 21.4132 32.1178 21.4132 29.9514C21.4132 27.8088 22.5875 26.4518 24.6006 26.4518Z" fill="#A6ADBB"/>
<path d="M38.9769 35.5936H41.5652V24.4044H38.9769V31.0227C38.9769 32.6178 37.9704 33.5701 36.3168 33.5701C34.5673 33.5701 33.9682 32.3797 33.9682 31.0227V24.4044H31.3799V31.7131C31.3799 34.1176 32.4104 35.9031 35.1185 35.9031C37.0118 35.9031 38.4497 34.927 38.953 32.5225H38.9769V35.5936Z" fill="#A6ADBB"/>
<path d="M45.836 28.9753C45.836 27.3803 46.8426 26.428 48.4962 26.428C50.2457 26.428 50.8448 27.6183 50.8448 28.9753V35.5936H53.433V28.3087C53.433 25.8804 52.4025 24.1187 49.6945 24.1187C47.8012 24.1187 46.3633 25.0948 45.86 27.4755H45.836V24.4044H43.2478V35.5936H45.836V28.9753Z" fill="#A6ADBB"/>
<path d="M59.9567 33.5701C57.9436 33.5701 57.0329 32.2845 57.0329 30.0466C57.0329 27.7374 57.9915 26.4042 59.9567 26.4042C61.802 26.4042 62.9523 27.785 62.9523 29.9276V30.118C62.9523 32.3321 61.802 33.5701 59.9567 33.5701ZM62.9523 35.5936H65.5406V21H62.9523V27.6183H62.9283C62.4251 25.3091 61.1549 24.0949 58.9022 24.1187C56.0743 24.0949 54.4686 26.3327 54.4686 30.0466C54.4686 33.6653 55.9784 35.9031 58.9022 35.9031C61.083 35.9031 62.4011 34.689 62.9044 32.4273H62.9523V35.5936Z" fill="#A6ADBB"/>
<path d="M75.3613 29.0705L77.8537 28.6658C77.3983 25.7852 75.8406 24.1187 72.4615 24.1187C69.0344 24.1187 66.6619 26.3089 66.6619 30.0228C66.6619 33.8319 68.9865 35.9031 72.5334 35.9031C75.7926 35.9031 77.4223 34.1176 77.8776 31.2608L75.4092 30.7608C75.0497 32.3559 74.3787 33.5462 72.4854 33.5462C70.5682 33.5462 69.2981 32.2845 69.2981 29.999C69.2981 27.5945 70.5922 26.4518 72.4375 26.4518C74.187 26.4518 75.0258 27.4993 75.3613 29.0705Z" fill="#A6ADBB"/>
<path d="M84.2563 35.9031C87.8272 35.9031 90.008 33.6415 90.008 29.9752C90.008 26.2851 87.7073 24.1187 84.2563 24.1187C80.7814 24.1187 78.4807 26.2851 78.4807 29.9752C78.4807 33.6415 80.6376 35.9031 84.2563 35.9031ZM84.2563 26.4518C86.2454 26.4518 87.4437 27.8088 87.4437 29.9514C87.4437 32.1178 86.2934 33.5462 84.2324 33.5462C82.1953 33.5462 81.0689 32.1178 81.0689 29.9514C81.0689 27.8088 82.2432 26.4518 84.2563 26.4518Z" fill="#A6ADBB"/>
<path d="M97.2427 35.5936L101.652 24.4044H98.9442L97.3865 28.7372C96.8593 30.2371 96.3081 31.8321 95.8048 33.2606H95.7569C95.2775 31.8321 94.7024 30.2371 94.1751 28.7372L92.6414 24.4044H89.8374L94.295 35.5936H97.2427Z" fill="#A6ADBB"/>
<path d="M107.119 26.2851C108.893 26.2851 109.804 27.1898 109.947 28.9277H104.052C104.339 27.1184 105.418 26.2851 107.119 26.2851ZM107.191 35.8793C110.163 35.8793 111.697 34.4033 112.272 32.2607L110.019 31.6179C109.684 32.7606 109.013 33.6415 107.215 33.6415C105.37 33.6415 104.268 32.713 104.028 30.8323H112.296C112.344 30.2371 112.344 29.7848 112.344 29.3324C112.344 26.2613 110.618 24.1187 107.191 24.1187C103.692 24.1187 101.44 26.3566 101.44 30.1419C101.44 33.8319 103.74 35.8793 107.191 35.8793Z" fill="#A6ADBB"/>
<path d="M116.094 35.5936V29.9276C116.094 27.9754 116.885 27.285 118.898 27.285H120V24.4044H119.353C117.651 24.4044 116.645 25.1662 116.142 28.0707H116.094V24.4044H113.505V35.5936H116.094Z" fill="#A6ADBB"/>
</svg>
