<svg width="120" height="60" viewBox="0 0 120 60" fill="none" xmlns="http://www.w3.org/2000/svg">
<path d="M42.2834 48.5668C52.3811 48.5668 60.5668 40.3811 60.5668 30.2834C60.5668 20.1858 52.3811 12 42.2834 12V48.5668Z" fill="#A6ADBB"/>
<path d="M42.2834 42.4736C49.0152 42.4736 54.4724 37.0164 54.4724 30.2847C54.4724 23.5529 49.0152 18.0957 42.2834 18.0957V42.4736Z" fill="#A6ADBB"/>
<path d="M42.2834 36.3784C45.6493 36.3784 48.3779 33.6498 48.3779 30.2839C48.3779 26.918 45.6493 24.1895 42.2834 24.1895V36.3784Z" fill="#A6ADBB"/>
<path d="M42.2834 12.0005C32.1858 12.0005 24 20.1863 24 30.284C24 40.3816 32.1858 48.5674 42.2834 48.5674L42.2834 12.0005Z" fill="#A6ADBB"/>
<path d="M42.2834 18.0948C35.5516 18.0948 30.0945 23.5519 30.0945 30.2837C30.0945 37.0155 35.5516 42.4727 42.2834 42.4727L42.2834 18.0948Z" fill="#A6ADBB"/>
<path d="M42.2834 24.189C38.9175 24.189 36.1889 26.9176 36.1889 30.2835C36.1889 33.6493 38.9175 36.3779 42.2834 36.3779L42.2834 24.189Z" fill="#A6ADBB"/>
<path d="M96 39.627H92.0306V35.571C92.0306 33.1749 90.1331 31.1589 87.7273 31.106C85.2537 31.0483 83.2206 33.0354 83.2206 35.4844V39.627H79.2512V35.5998C79.2512 30.928 83.0753 27.0789 87.7757 27.1655C92.3259 27.2473 96 30.9472 96 35.4892V39.627V39.627Z" fill="#A6ADBB"/>
<path d="M70.4439 21.3428H66.4745V39.626H70.4439V21.3428Z" fill="#A6ADBB"/>
<path d="M76.8483 27.3838H72.8789V39.6287H76.8483V27.3838Z" fill="#A6ADBB"/>
<path d="M74.8636 25.2881C75.9597 25.2881 76.8483 24.4049 76.8483 23.3154C76.8483 22.226 75.9597 21.3428 74.8636 21.3428C73.7675 21.3428 72.8789 22.226 72.8789 23.3154C72.8789 24.4049 73.7675 25.2881 74.8636 25.2881Z" fill="#A6ADBB"/>
</svg>
