<svg width="120" height="60" viewBox="0 0 120 60" fill="none" xmlns="http://www.w3.org/2000/svg">
<path d="M20.5782 16.8242C28.1416 16.8242 34.273 22.9556 34.273 30.519C34.273 38.0825 28.1416 44.2138 20.5782 44.2138C13.0147 44.2138 6.88339 38.0825 6.88339 30.519C6.88339 22.9556 13.0147 16.8242 20.5782 16.8242ZM20.5782 18.2658C13.8109 18.2658 8.32495 23.7517 8.32495 30.519C8.32495 37.2863 13.8109 42.7723 20.5782 42.7723C27.3455 42.7723 32.8315 37.2863 32.8315 30.519C32.8315 23.7517 27.3455 18.2658 20.5782 18.2658ZM27.2657 23.958C28.0616 24.8132 28.5067 25.9402 28.5067 27.1135L28.5066 30.3487L29.8722 33.0798C30.0375 33.4104 29.9249 33.8073 29.6229 34.0049L28.5064 34.5682L28.5067 37.006C28.5067 37.3757 28.2285 37.6804 27.87 37.722L24.1813 37.7266L24.1821 39.1684C24.1821 39.538 23.9038 39.8427 23.5453 39.8843L20.4984 39.8888C18.0575 39.8682 15.7135 38.9057 13.9525 37.1447C10.2933 33.4854 10.2933 27.5526 13.9525 23.8933C17.4956 20.3503 23.1702 20.2378 26.8487 23.5559L27.2657 23.958ZM26.6322 25.5087L23.1819 28.9588C23.1276 29.013 23.0669 29.0568 23.0022 29.0901C22.7238 29.2663 22.3502 29.2331 22.1072 28.99C21.2628 28.1456 19.8936 28.1456 19.0492 28.99C18.2048 29.8345 18.2048 31.2036 19.0492 32.048C19.3214 32.3203 19.3304 32.7562 19.0759 33.0392C19.0567 33.0694 17.8705 34.264 15.5174 36.6229C16.9298 37.7966 18.6871 38.4319 20.5106 38.4473H22.7404L22.7405 37.006C22.7405 36.6364 23.0188 36.3318 23.3773 36.2901L27.0652 36.2849L27.0652 34.1229C27.0652 33.8803 27.1871 33.6561 27.3857 33.5235L28.2603 33.0793L27.3406 31.2398H25.6236C25.2256 31.2398 24.9029 30.9171 24.9029 30.519C24.9029 30.121 25.2256 29.7982 25.6236 29.7982H27.0652V27.1135C27.0652 26.6079 26.9452 26.1148 26.7211 25.6722L26.6322 25.5087ZM14.9718 24.9127C12.0432 27.8413 11.8847 32.491 14.496 35.606L17.5806 32.5209C16.6431 31.1203 16.7929 29.2077 18.0298 27.9707C19.2671 26.7334 21.1801 26.5838 22.5808 27.5219L25.6652 24.4369C22.5501 21.8254 17.9005 21.9841 14.9718 24.9127Z" fill="#A6ADBB"/>
<path d="M50.1302 21.1489C55.3052 21.1489 59.5006 25.344 59.5006 30.519C59.5006 35.694 55.3052 39.8891 50.1302 39.8891C44.9552 39.8891 40.7601 35.694 40.7601 30.519C40.7601 25.344 44.9552 21.1489 50.1302 21.1489ZM50.1302 22.5905C46.1495 22.5905 42.9224 26.1402 42.9224 30.519C42.9224 34.8979 46.1495 38.4476 50.1302 38.4476C54.1109 38.4476 57.338 34.8979 57.338 30.519C57.338 26.1402 54.1109 22.5905 50.1302 22.5905ZM96.2599 21.1489C101.435 21.1489 105.63 25.344 105.63 30.519C105.63 35.694 101.435 39.8891 96.2599 39.8891C91.085 39.8891 86.8898 35.694 86.8898 30.519C86.8898 25.344 91.085 21.1489 96.2599 21.1489ZM96.2599 22.5905C92.2794 22.5905 89.0521 26.1402 89.0521 30.519C89.0521 34.8979 92.2794 38.4476 96.2599 38.4476C100.241 38.4476 103.468 34.8979 103.468 30.519C103.468 26.1402 100.241 22.5905 96.2599 22.5905ZM65.2664 16.8242C65.6644 16.8242 65.9874 17.1469 65.9874 17.545V24.5316C67.7062 22.4648 70.297 21.1489 73.1952 21.1489C78.37 21.1489 82.5652 25.344 82.5652 30.519C82.5652 35.694 78.37 39.8891 73.1952 39.8891C70.297 39.8891 67.7062 38.5733 65.9874 36.5065V39.1684C65.9874 39.5665 65.6644 39.8891 65.2664 39.8891H64.5461C64.1476 39.8891 63.8251 39.5665 63.8251 39.1684V17.545C63.8251 17.1469 64.1476 16.8242 64.5461 16.8242H65.2664ZM73.1952 22.5905C69.2142 22.5905 65.9874 26.1402 65.9874 30.519C65.9874 34.8979 69.2142 38.4476 73.1952 38.4476C77.1756 38.4476 80.403 34.8979 80.403 30.519C80.403 26.1402 77.1756 22.5905 73.1952 22.5905ZM110.675 16.8242H111.396C111.794 16.8242 112.117 17.1469 112.117 17.545V39.1684C112.117 39.5665 111.794 39.8891 111.396 39.8891H110.675C110.277 39.8891 109.955 39.5665 109.955 39.1684V17.545C109.955 17.1469 110.277 16.8242 110.675 16.8242Z" fill="#A6ADBB"/>
</svg>
