<svg width="120" height="60" viewBox="0 0 120 60" fill="none" xmlns="http://www.w3.org/2000/svg">
<g clip-path="url(#clip0_13464_117)">
<mask id="mask0_13464_117" style="mask-type:luminance" maskUnits="userSpaceOnUse" x="0" y="13" width="120" height="34">
<path d="M120 13.1113H0V46.0071H120V13.1113Z" fill="white"/>
</mask>
<g mask="url(#mask0_13464_117)">
<path fill-rule="evenodd" clip-rule="evenodd" d="M9.21724 43.2237C6.77894 42.6466 4.82219 41.4573 3.82683 39.956V38.4941C5.55532 39.8135 7.65107 40.8668 9.63609 41.4319C9.36676 41.9145 9.21324 42.4705 9.21324 43.0623C9.21324 43.1165 9.21476 43.1702 9.21724 43.2237ZM21.303 38.4941V39.956C20.3078 41.4573 18.351 42.6466 15.9125 43.2237C15.9152 43.1702 15.9166 43.1165 15.9166 43.0623C15.9166 42.4705 15.7631 41.9143 15.4939 41.4319C17.4788 40.8668 19.5745 39.8137 21.303 38.4941Z" fill="#A6ADBB"/>
<path fill-rule="evenodd" clip-rule="evenodd" d="M11.2468 42.8869L10.6093 43.5244L12.0919 45.0071L14.5208 42.5782L13.8833 41.9407L12.0919 43.732L11.2468 42.8869ZM14.9068 41.585C15.2155 42.0386 15.396 42.5862 15.396 43.1762C15.396 44.7399 14.1285 46.0074 12.565 46.0074C11.0012 46.0074 9.73396 44.7399 9.73396 43.1762C9.73396 42.5862 9.91449 42.0386 10.223 41.585C11.0431 41.7802 11.8356 41.8865 12.565 41.8865C13.2942 41.8863 14.0868 41.7801 14.9068 41.585Z" fill="#A6ADBB"/>
<path d="M16.6337 25.4441C17.6247 25.4441 18.4281 26.2477 18.4281 27.2387C18.4281 28.2296 17.6245 29.0334 16.6337 29.0334C15.6427 29.0334 14.839 28.2296 14.839 27.2387C14.839 26.2479 15.6427 25.4441 16.6337 25.4441ZM8.49617 25.4441C9.4872 25.4441 10.2908 26.2477 10.2908 27.2387C10.2908 28.2296 9.4872 29.0334 8.49617 29.0334C7.50528 29.0334 6.70157 28.2296 6.70157 27.2387C6.70173 26.2479 7.50528 25.4441 8.49617 25.4441ZM12.5649 39.1983C7.19332 39.1983 2.85154 35.5649 5.4591 32.2835C6.67254 30.7566 9.1352 29.5742 10.1661 29.0749C12.5908 27.9005 11.8895 24.8847 9.99796 24.8847C9.72844 24.8847 8.79269 24.8824 8.11177 24.8824C6.351 24.8824 4.97401 24.6797 4.97401 21.8648H5.86775C6.26111 21.8648 6.39841 21.8499 6.39841 22.2535C6.39841 22.5943 6.42729 22.9528 6.72227 23.1255C6.87053 23.2122 7.11764 23.2567 7.47116 23.2594C7.82173 23.2622 9.19689 23.2687 10.193 23.2687C11.3496 23.2687 12.1462 23.4939 12.5653 24.4493C12.9844 23.4939 13.781 23.2687 14.9377 23.2687C15.9339 23.2687 17.3089 23.2622 17.6595 23.2594C18.0132 23.2567 18.2601 23.2122 18.4084 23.1255C18.7035 22.9528 18.7322 22.5944 18.7322 22.2535C18.7322 21.8499 18.8695 21.8648 19.2628 21.8648H20.1566C20.1566 24.6797 18.7796 24.8824 17.0187 24.8824C16.3378 24.8824 15.402 24.8847 15.1326 24.8847C13.2409 24.8847 12.5396 27.9004 14.9644 29.0749C15.9952 29.5742 18.458 30.7566 19.6714 32.2835C22.2783 35.5647 17.9364 39.1983 12.5649 39.1983ZM21.4375 16.2611C21.6105 17.6134 21.6908 18.1498 21.7898 19.2485C21.8255 19.6451 21.8942 19.8926 21.4939 19.7868C20.4065 19.4994 19.8785 19.3595 18.7909 19.0721C18.3072 18.9442 17.93 18.9615 18.2139 18.5658C18.9413 17.5523 19.6947 16.6412 20.7248 15.878C21.2372 15.4982 21.3604 15.6587 21.4375 16.2611ZM3.55548 17.32C3.59439 17.0176 3.63903 16.6783 3.69231 16.2611C3.76938 15.6587 3.89262 15.4982 4.4049 15.8778C5.43501 16.6411 6.18837 17.5521 6.91579 18.5657C7.1998 18.9614 6.82251 18.9441 6.33895 19.0719C5.25139 19.3594 4.72335 19.4994 3.63594 19.7867C3.23579 19.8925 3.30436 19.6451 3.34003 19.2483C3.36536 18.9682 3.3893 18.7246 3.41401 18.4948L3.55548 17.32ZM16.0873 18.477C13.7274 18.1887 11.3674 18.2031 9.00756 18.477C8.18729 17.0565 4.9235 13.1113 3.46235 13.1113C2.84134 13.1113 2.33772 13.6148 2.33772 14.2358L1.92536 17.3201L1.86852 17.7448L1.72922 18.7873L0.0351658 31.4559C-0.599429 36.2012 7.50034 41.2988 12.5649 41.2988C17.6295 41.2988 25.7292 36.2014 25.0947 31.4559L22.7921 14.2358C22.7921 13.6148 22.2886 13.1113 21.6675 13.1113C20.2065 13.1112 16.9074 17.0565 16.0873 18.477Z" fill="#A6ADBB"/>
<path d="M15.3348 31.8232C15.5956 32.161 15.557 32.6665 15.249 32.9524C12.822 35.2016 12.3121 35.2056 9.88089 32.9524C9.57298 32.6667 9.53431 32.161 9.79503 31.8232C10.5807 30.962 14.5812 30.9972 15.3348 31.8232Z" fill="#A6ADBB"/>
<path fill-rule="evenodd" clip-rule="evenodd" d="M8.98933 26.392C9.16125 26.4063 9.33191 26.574 9.37049 26.7667C9.40907 26.9594 9.30098 27.1043 9.12907 27.0899C8.95725 27.0757 8.78655 26.908 8.74794 26.7152C8.70933 26.5225 8.81743 26.3778 8.98933 26.392ZM17.1267 26.392C17.2986 26.4063 17.4692 26.574 17.5078 26.7667C17.5464 26.9594 17.4385 27.1043 17.2664 27.0899C17.0946 27.0757 16.9237 26.908 16.8852 26.7152C16.8467 26.5225 16.9548 26.3778 17.1267 26.392ZM16.6337 25.8896C17.379 25.8896 17.983 26.4938 17.983 27.2392C17.983 27.9845 17.3788 28.5885 16.6337 28.5885C15.8885 28.5885 15.2842 27.9843 15.2842 27.2392C15.2842 26.4938 15.8884 25.8896 16.6337 25.8896ZM8.49619 25.8896C9.24151 25.8896 9.84569 26.4938 9.84569 27.2392C9.84569 27.9845 9.24151 28.5885 8.49619 28.5885C7.75102 28.5885 7.1467 27.9843 7.1467 27.2392C7.14685 26.4938 7.75102 25.8896 8.49619 25.8896Z" fill="#A6ADBB"/>
<path d="M8.01545 35.9604C7.93097 35.8132 7.98179 35.6254 8.12881 35.5409C8.27599 35.4564 8.46379 35.507 8.54827 35.6542C8.67151 35.8677 8.86749 36.0352 9.08925 36.1543C9.34916 36.2936 9.64142 36.3646 9.89636 36.3646C10.4012 36.3646 10.6892 36.1644 11.1644 35.9868C12.5062 35.4853 12.5728 35.4669 13.9149 35.9684C14.3903 36.146 14.7286 36.3646 15.2335 36.3646C15.4885 36.3646 15.7807 36.2938 16.0407 36.1543C16.2626 36.0352 16.4586 35.8677 16.5817 35.6542C16.6661 35.507 16.8541 35.4564 17.0012 35.5409C17.1484 35.6254 17.1991 35.8134 17.1145 35.9604C16.9292 36.2814 16.646 36.5271 16.33 36.6967C15.9775 36.8857 15.5804 36.9818 15.2335 36.9818C14.6239 36.9818 14.0308 36.76 13.5038 36.5631C12.5813 36.2186 12.5484 36.2186 11.626 36.5631C11.099 36.76 10.506 36.9818 9.89636 36.9818C9.54933 36.9818 9.15245 36.8857 8.80001 36.6967C8.48387 36.5271 8.20078 36.2813 8.01545 35.9604Z" fill="#A6ADBB"/>
<path d="M33.3487 36.781V22.3383H39.4467C39.5897 22.3383 39.7804 22.3383 40.0184 22.3542C40.2488 22.362 40.4632 22.3858 40.6536 22.4175C41.5116 22.5526 42.218 22.8384 42.7736 23.2672C43.3219 23.7038 43.7267 24.2516 43.9887 24.9108C44.2508 25.5701 44.3778 26.3004 44.3778 27.1103C44.3778 27.9202 44.2508 28.6505 43.9887 29.3094C43.7188 29.9683 43.3135 30.5161 42.766 30.9532C42.2102 31.3898 41.5034 31.6677 40.6538 31.803C40.4634 31.8348 40.249 31.8505 40.0108 31.8663C39.7646 31.8824 39.582 31.8824 39.4468 31.8824H36.0802V36.7812L33.3487 36.781ZM36.0802 29.3415H39.3277C39.4708 29.3415 39.6215 29.3333 39.788 29.3174C39.9549 29.3015 40.106 29.2778 40.2486 29.238C40.614 29.1347 40.8996 28.9682 41.0982 28.7299C41.3047 28.4918 41.4396 28.2298 41.5189 27.936C41.5985 27.6497 41.6303 27.372 41.6303 27.1102C41.6303 26.848 41.5985 26.5701 41.5189 26.2842C41.4396 25.9904 41.3047 25.7282 41.0982 25.4903C40.8996 25.2518 40.614 25.0851 40.2486 24.982C40.1058 24.942 39.9548 24.9186 39.788 24.9027C39.6215 24.8944 39.4708 24.8865 39.3277 24.8865H36.0802V29.3415ZM50.8964 37.0826C49.7851 37.0826 48.8082 36.8368 47.9665 36.3601C47.1169 35.8836 46.4578 35.2248 45.9816 34.3829C45.5052 33.5496 45.2588 32.5888 45.2588 31.5008C45.2588 30.3177 45.497 29.2935 45.9657 28.412C46.4341 27.5385 47.0771 26.856 47.8951 26.3714C48.721 25.8868 49.6658 25.6488 50.7375 25.6488C51.8732 25.6488 52.8417 25.9109 53.636 26.4508C54.4299 26.9825 55.0175 27.737 55.3988 28.7056C55.7796 29.6743 55.9148 30.8177 55.8037 32.128H54.4854H53.1038H48.1971C48.2845 32.7712 48.4908 33.3032 48.8084 33.7002C49.2452 34.2562 49.8881 34.5339 50.7376 34.5339C51.27 34.5339 51.7304 34.4148 52.1116 34.1846C52.4928 33.9463 52.7784 33.613 52.9849 33.168L55.7086 33.9544C55.3035 34.9387 54.6603 35.709 53.779 36.2572C52.9053 36.8049 51.9367 37.0826 50.8964 37.0826ZM53.0402 30.1035C52.9608 29.5159 52.8098 29.0552 52.5798 28.7376C52.2304 28.2532 51.6505 28.0152 50.8567 28.0152C49.9277 28.0152 49.245 28.2932 48.8081 28.8566C48.5539 29.1823 48.3795 29.5951 48.2681 30.1033L53.0402 30.1035ZM57.7328 36.781V25.9508H60.1388V28.5949L59.8768 28.2533C60.0198 27.8802 60.2107 27.5387 60.4408 27.229C60.6788 26.9274 60.9648 26.6732 61.306 26.4671C61.5681 26.3081 61.8462 26.1808 62.1557 26.0937C62.4655 25.9984 62.7832 25.9427 63.1086 25.9191C63.434 25.8952 63.7677 25.9111 64.0931 25.9506V28.4916C63.7912 28.4042 63.4422 28.3647 63.0452 28.3961C62.6481 28.428 62.2905 28.5234 61.9652 28.6743C61.6477 28.825 61.3775 29.0156 61.1556 29.2618C60.9333 29.508 60.7663 29.7938 60.6551 30.1194C60.5363 30.4528 60.4804 30.8258 60.4804 31.247V36.781H57.7328ZM78.7107 36.781V30.3815C78.7107 29.6665 78.5439 29.1029 78.2025 28.7058C77.8692 28.309 77.4004 28.1104 76.805 28.1104C76.424 28.1104 76.0904 28.1978 75.8125 28.3806C75.5347 28.5552 75.3122 28.8014 75.1616 29.1188C75.0027 29.4366 74.9233 29.8017 74.9233 30.2224V36.7808H72.1918V30.3813C72.1918 29.6664 72.0253 29.1027 71.6915 28.7056C71.35 28.3089 70.8819 28.1103 70.286 28.1103C69.7227 28.1103 69.2616 28.3089 68.9204 28.6979C68.579 29.087 68.4044 29.5952 68.4044 30.2224V36.7808H65.657V25.9506H68.0628V27.1337C68.3724 26.7448 68.7617 26.4271 69.2221 26.1808C69.8175 25.8478 70.4845 25.6885 71.2307 25.6885C72.0804 25.6885 72.7793 25.8711 73.3189 26.2286C73.7717 26.5302 74.1292 26.9114 74.3832 27.3716C74.7244 26.8637 75.1692 26.4585 75.7171 26.1648C76.3128 25.8476 76.9637 25.6885 77.6862 25.6885C78.925 25.6885 79.862 26.0537 80.489 26.7841C81.1242 27.5148 81.4419 28.4759 81.4419 29.6585V36.7808L78.7107 36.781ZM83.9273 24.4422V22.0361H86.6511V24.4422H83.9273ZM83.9273 36.781V25.9508H86.6511V36.781H83.9273ZM95.8373 36.781C95.0835 36.9161 94.3529 36.9795 93.6382 36.9639C92.9155 36.9478 92.2729 36.8208 91.7093 36.5825C91.1449 36.3442 90.7164 35.9636 90.4222 35.4312C90.1529 34.9389 90.0098 34.4384 90.0018 33.9226C89.9858 33.4144 89.9778 32.8346 89.9778 32.184V28.0549H88.1357V25.9506H89.9778V22.9416H92.7093V25.9506H95.8373V28.0549H92.7093V32.0248C92.7093 32.4459 92.7173 32.8267 92.7253 33.1605C92.7333 33.5019 92.7964 33.7719 92.9235 33.9704C93.1698 34.3513 93.5511 34.558 94.0827 34.5896C94.6071 34.6296 95.1947 34.5978 95.8373 34.5103V36.781ZM98.3627 36.781V34.0496H101.086V36.781H98.3627ZM104.214 24.4422V22.0361H106.946V24.4422H104.214ZM104.214 36.781V25.9508H106.946V36.781H104.214ZM114.505 37.0826C113.409 37.0826 112.456 36.8368 111.631 36.3442C110.812 35.8601 110.17 35.185 109.716 34.3274C109.257 33.4619 109.027 32.4774 109.027 31.3659C109.027 30.2304 109.264 29.238 109.724 28.3806C110.193 27.523 110.844 26.848 111.662 26.3716C112.488 25.887 113.433 25.649 114.505 25.649C115.593 25.649 116.554 25.8952 117.379 26.3793C118.204 26.8638 118.848 27.5385 119.308 28.3961C119.769 29.2537 119.999 30.2462 119.999 31.3659C119.999 32.4856 119.769 33.478 119.3 34.3356C118.84 35.1929 118.189 35.868 117.363 36.3524C116.538 36.8369 115.585 37.0826 114.505 37.0826ZM114.505 34.5341C115.379 34.5341 116.029 34.2325 116.466 33.6448C116.895 33.0495 117.109 32.295 117.109 31.3659C117.109 30.3974 116.895 29.6349 116.459 29.0552C116.013 28.4836 115.363 28.1979 114.505 28.1979C113.909 28.1979 113.417 28.3248 113.036 28.5948C112.655 28.8648 112.377 29.2378 112.194 29.7064C112.012 30.1827 111.916 30.7387 111.916 31.3657C111.916 32.3344 112.139 33.1048 112.575 33.6763C113.012 34.2485 113.656 34.5341 114.505 34.5341Z" fill="#A6ADBB"/>
</g>
</g>
<defs>
<clipPath id="clip0_13464_117">
<rect width="120" height="33.7778" fill="white" transform="translate(0 13.1113)"/>
</clipPath>
</defs>
</svg>
