<svg width="120" height="60" viewBox="0 0 120 60" fill="none" xmlns="http://www.w3.org/2000/svg">
<g clip-path="url(#clip0_13464_116)">
<path d="M100.953 37.4119C99.8764 37.4119 98.9979 37.0826 98.3171 36.4238C97.6583 35.7429 97.3289 34.8426 97.3289 33.7226V24.4989H93.2441V21.073H97.3289V16H101.48V21.073H105.96V24.4989H101.48V32.9979C101.48 33.6567 101.787 33.986 102.402 33.986H105.564V37.4119H100.953Z" fill="#A6ADBB"/>
<path d="M81.6322 37.4117V21.0727H85.7169V22.9175H86.3098C86.5514 22.2586 86.9467 21.7755 87.4957 21.468C88.0667 21.1606 88.7256 21.0068 89.4723 21.0068H91.4487V24.6963H89.4064C88.3523 24.6963 87.4848 24.9818 86.804 25.5528C86.1231 26.1018 85.7828 26.9583 85.7828 28.1222V37.4117H81.6322Z" fill="#A6ADBB"/>
<path d="M70.8787 37.8737C69.2535 37.8737 67.7931 37.5442 66.4974 36.8854C65.2017 36.2266 64.1805 35.2713 63.4338 34.0195C62.6872 32.7678 62.3138 31.2635 62.3138 29.5066V28.9795C62.3138 27.2226 62.6872 25.7182 63.4338 24.4665C64.1805 23.2147 65.2017 22.2594 66.4974 21.6006C67.7931 20.9417 69.2535 20.6123 70.8787 20.6123C72.5037 20.6123 73.9642 20.9417 75.2599 21.6006C76.5556 22.2594 77.5767 23.2147 78.3234 24.4665C79.0701 25.7182 79.4434 27.2226 79.4434 28.9795V29.5066C79.4434 31.2635 79.0701 32.7678 78.3234 34.0195C77.5767 35.2713 76.5556 36.2266 75.2599 36.8854C73.9642 37.5442 72.5037 37.8737 70.8787 37.8737ZM70.8787 34.1842C72.1523 34.1842 73.2065 33.778 74.041 32.9654C74.8756 32.1309 75.2928 30.945 75.2928 29.4076V29.0783C75.2928 27.541 74.8756 26.3661 74.041 25.5535C73.2285 24.719 72.1744 24.3018 70.8787 24.3018C69.6049 24.3018 68.5507 24.719 67.7162 25.5535C66.8817 26.3661 66.4645 27.541 66.4645 29.0783V29.4076C66.4645 30.945 66.8817 32.1309 67.7162 32.9654C68.5507 33.778 69.6049 34.1842 70.8787 34.1842Z" fill="#A6ADBB"/>
<path d="M43.7474 44.0008V21.0735H47.8321V23.05H48.4251C48.7984 22.4131 49.3804 21.8531 50.171 21.37C50.9616 20.8649 52.0926 20.6123 53.564 20.6123C54.8817 20.6123 56.1005 20.9417 57.2205 21.6006C58.3405 22.2374 59.2409 23.1817 59.9217 24.4335C60.6025 25.6853 60.9429 27.2006 60.9429 28.9795V29.5066C60.9429 31.2854 60.6025 32.8007 59.9217 34.0525C59.2409 35.3042 58.3405 36.2596 57.2205 36.9184C56.1005 37.5553 54.8817 37.8737 53.564 37.8737C52.5758 37.8737 51.7412 37.7529 51.0604 37.5113C50.4016 37.2917 49.8635 37.0063 49.4463 36.6549C49.051 36.2815 48.7325 35.9082 48.491 35.5349H47.898V44.0008H43.7474ZM52.3122 34.2501C53.6079 34.2501 54.6731 33.8438 55.5076 33.0313C56.364 32.1968 56.7922 30.9889 56.7922 29.4076V29.0783C56.7922 27.4971 56.364 26.3002 55.5076 25.4877C54.651 24.6531 53.586 24.2359 52.3122 24.2359C51.0384 24.2359 49.9734 24.6531 49.1168 25.4877C48.2604 26.3002 47.8321 27.4971 47.8321 29.0783V29.4076C47.8321 30.9889 48.2604 32.1968 49.1168 33.0313C49.9734 33.8438 51.0384 34.2501 52.3122 34.2501Z" fill="#A6ADBB"/>
<path fill-rule="evenodd" clip-rule="evenodd" d="M15 30.0076H26.2548L15 18.7533V30.0076ZM15.0135 33.9052C15.2005 36.4252 17.3043 38.4116 19.8721 38.4116H37.4117V20.8721C37.4117 18.2887 35.401 16.175 32.8593 16.0103V30.0076V33.9053L15.0135 33.9052ZM28.9616 16V27.2022L17.7588 16H28.9616Z" fill="#A6ADBB"/>
</g>
<defs>
<clipPath id="clip0_13464_116">
<rect width="91" height="28" fill="white" transform="translate(15 16)"/>
</clipPath>
</defs>
</svg>
